<?xml version="1.0" encoding="iso-8859-1"?>
<!-- Uploaded to: SVG Repo, www.svgrepo.com, Generator: SVG Repo Mixer Tools -->
<svg height="800px" width="800px" version="1.1" id="Layer_1" xmlns="http://www.w3.org/2000/svg" xmlns:xlink="http://www.w3.org/1999/xlink" 
	 viewBox="0 0 512 512" xml:space="preserve">
<path style="fill:#74C1F2;" d="M256,10.199L256,10.199c-60.835,0-110.151,49.316-110.151,110.151v2.04h71.394
	c0-22.314,18.857-40.224,41.506-38.662c19.111,1.318,34.595,16.801,35.913,35.913c1.102,15.97-7.479,30.055-20.458,36.973
	c-20.509,10.932-38.983,25.311-55.416,41.745l0,0c-46.703,46.702-72.94,110.043-72.94,176.09v127.35h220.303v-381.45
	C366.151,59.515,316.835,10.199,256,10.199z"/>
<path d="M366.151,512H145.849c-5.633,0-10.199-4.567-10.199-10.199v-127.35c0-34.215,6.639-67.591,19.732-99.203
	s32-59.906,56.194-84.101c18.06-18.059,37.517-32.705,57.832-43.533c9.938-5.297,15.857-16.002,15.08-27.271
	c-0.972-14.1-12.339-25.467-26.439-26.44c-8.033-0.555-15.68,2.146-21.526,7.605c-5.854,5.464-9.077,12.881-9.077,20.883
	c0,5.632-4.566,10.199-10.199,10.199H145.85c-5.633,0-10.199-4.567-10.199-10.199v-2.04C135.649,53.989,189.639,0,256,0
	s120.351,53.989,120.351,120.351v381.45C376.351,507.433,371.784,512,366.151,512z M156.048,491.602h199.904V120.351
	c0-55.113-44.838-99.952-99.952-99.952c-52.366,0-95.455,40.483-99.623,91.793h51.75c2.085-9.728,7.11-18.721,14.474-25.595
	c10.027-9.358,23.111-13.981,36.85-13.044c24.206,1.671,43.717,21.183,45.386,45.387c1.33,19.279-8.811,37.6-25.836,46.675
	c-18.537,9.881-36.369,23.324-53.002,39.957c-45.109,45.108-69.951,105.084-69.951,168.878V491.602z"/>
<path d="M317.705,383.49h-123.41c-5.633,0-10.199-4.567-10.199-10.199c0-5.632,4.566-10.199,10.199-10.199h123.41
	c5.633,0,10.199,4.567,10.199,10.199C327.904,378.923,323.338,383.49,317.705,383.49z"/>
<path d="M317.705,427.347h-17.849c-5.633,0-10.199-4.567-10.199-10.199c0-5.632,4.566-10.199,10.199-10.199h17.849
	c5.633,0,10.199,4.567,10.199,10.199C327.904,422.779,323.338,427.347,317.705,427.347z"/>
<path d="M259.06,427.347h-64.765c-5.633,0-10.199-4.567-10.199-10.199c0-5.632,4.566-10.199,10.199-10.199h64.765
	c5.633,0,10.199,4.567,10.199,10.199C269.259,422.779,264.692,427.347,259.06,427.347z"/>
</svg>