<?xml version="1.0" encoding="utf-8"?><!-- Uploaded to: SVG Repo, www.svgrepo.com, Generator: SVG Repo Mixer Tools -->
<svg width="800px" height="800px" viewBox="0 0 24 24" id="Flat_Color" data-name="Flat Color" xmlns="http://www.w3.org/2000/svg"><path id="primary" d="M14,12c-2.44,0-4-3.94-4-6a4,4,0,0,1,8,0C18,8.06,16.44,12,14,12Zm0-8a2,2,0,0,0-2,2c0,1.5,1.25,4,2,4s2-2.5,2-4A2,2,0,0,0,14,4Zm0,18a4,4,0,0,1-4-4c0-2.06,1.56-6,4-6s4,3.94,4,6A4,4,0,0,1,14,22Zm0-8c-.75,0-2,2.5-2,4a2,2,0,0,0,4,0C16,16.5,14.75,14,14,14Z" style="fill:#000000"></path><path id="secondary" d="M18,11H17a1,1,0,0,0,0-2H11a1,1,0,0,0,0,2H10a1,1,0,0,0,0,2h.83a7.78,7.78,0,0,0-5.54,2.29,1,1,0,0,0,0,1.42,1,1,0,0,0,1.42,0A5.79,5.79,0,0,1,10.83,15H17a1,1,0,0,0,0-2h1a1,1,0,0,0,0-2Z" style="fill:#2ca9bc"></path></svg>